<svg width="86" height="64" viewBox="0 0 86 64" fill="none" xmlns="http://www.w3.org/2000/svg">
<path d="M7.55228 0.297817C5.59993 0.628723 4.37558 1.29053 3.08505 2.68034C0.636354 5.22831 0.801807 3.37524 0.702535 30.1124C0.636354 50.9925 0.669444 54.2023 1.09962 54.5332C1.76143 55.0957 2.85342 54.6986 3.08505 53.8052C3.18432 53.4081 3.2836 45.1355 3.2836 35.44V17.8358H42.9922H82.7009L82.6347 37.9217L82.5354 58.0408L81.7412 59.1659C81.3111 59.7615 80.3514 60.5557 79.5904 60.8866C78.2998 61.4822 76.6453 61.5153 42.9922 61.5153C9.33917 61.5153 7.68464 61.4822 6.39411 60.8866C5.63302 60.5557 4.70649 59.7946 4.27631 59.232C3.71377 58.4048 3.34978 58.2062 2.65488 58.2724C1.26507 58.4379 1.36435 59.596 2.95269 61.3168C5.59993 64.1956 2.72106 63.9971 42.9922 63.9971C83.1641 63.9971 80.3845 64.1625 82.9656 61.3829C85.5136 58.6364 85.3812 60.1586 85.2819 31.5684C85.1827 3.20978 85.3481 5.26139 82.8994 2.68034C81.5427 1.19126 80.3845 0.661812 78.002 0.264725C75.5533 -0.132362 74.1966 0.132366 73.9319 0.992718C73.5679 2.08471 74.2959 2.54797 76.7115 2.68034C78.4653 2.77961 79.2595 2.97815 80.2853 3.67305C82.3369 5.02976 82.7009 6.15484 82.7009 11.0191V15.1886H42.9591H3.21742L3.34978 10.6221C3.44905 5.39376 3.81305 4.53341 6.36102 3.30906C7.78391 2.61415 8.04863 2.61415 38.7236 2.61415C62.3502 2.61415 69.7625 2.51488 70.0603 2.21707C70.7221 1.55526 70.5236 0.628723 69.597 0.297817C68.6043 -0.0992661 9.83552 -0.0992661 7.55228 0.297817Z" fill="#607D8B"/>
<path d="M23.0388 4.40103C20.7886 5.2283 19.829 6.58501 19.829 9.00062C19.829 12.9053 24.2631 15.1555 27.4398 12.8722C31.8408 9.72861 28.1347 2.58105 23.0388 4.40103ZM26.1493 7.18064C27.7045 8.47117 26.7118 11.2177 24.6602 11.2177C23.4358 11.2177 23.0388 10.986 22.5093 9.99333C21.9468 8.90135 22.046 8.30572 22.9726 7.41227C23.9322 6.41956 25.0904 6.35337 26.1493 7.18064Z" fill="#607D8B"/>
<path d="M9.14067 5.16213C8.61122 5.65849 8.97522 6.78357 9.93484 7.80938L10.9937 8.86827L9.93484 10.0595C8.74358 11.4162 8.61122 12.3759 9.57084 12.8722C10.1003 13.17 10.4312 13.0046 11.5563 12.0119L12.8799 10.8206L14.2035 12.0119C15.3286 13.0046 15.6595 13.17 16.189 12.8722C17.1486 12.3428 16.9831 11.2177 15.7919 9.99335L14.733 8.90136L15.825 7.77629C17.9758 5.55922 16.3875 3.90469 14.0381 5.95631L12.8468 7.0152L11.7879 5.95631C10.7621 4.99668 9.63703 4.63268 9.14067 5.16213Z" fill="#607D8B"/>
<path d="M8.31337 26.5055C7.71774 27.1012 7.8501 28.0277 8.545 28.4248C8.909 28.5902 9.9679 28.7557 10.8944 28.7557C12.8468 28.7557 13.8726 28.3255 13.8726 27.4982C13.8726 26.4393 13.1446 26.1084 10.8944 26.1084C9.63699 26.1084 8.545 26.2739 8.31337 26.5055Z" fill="#607D8B"/>
<path d="M17.5788 26.5055C17.0825 27.0019 17.0825 27.8622 17.5788 28.3586C18.1414 28.9211 34.091 28.9211 34.6535 28.3586C35.2161 27.796 35.1499 26.5386 34.5212 26.307C34.2233 26.2077 30.3848 26.1084 25.9838 26.1084C20.193 26.1084 17.8766 26.2077 17.5788 26.5055Z" fill="#607D8B"/>
<path d="M62.9127 27.7299C62.681 27.8622 61.192 32.7265 59.6367 38.4843C57.3535 46.9555 56.8902 49.0402 57.2211 49.4373C57.7836 50.0991 58.7764 50.066 59.1734 49.338C59.3389 49.0402 60.6956 44.1759 62.2178 38.5505C64.8319 28.7557 64.9312 28.3255 64.3356 27.8953C63.6076 27.3659 63.5083 27.3328 62.9127 27.7299Z" fill="#607D8B"/>
<path d="M50.0737 34.0833C47.4926 36.6312 45.9705 38.4181 45.9705 38.8152C45.9705 39.6425 53.482 47.2864 54.2431 47.2864C54.9049 47.2864 55.5667 46.6246 55.5667 45.9959C55.5667 45.698 54.0445 43.9442 52.1915 42.0912L48.7832 38.6828L52.1915 35.2745C54.0445 33.4215 55.5667 31.6346 55.5667 31.3367C55.5667 31.0058 55.2689 30.6088 54.8718 30.4102C54.2431 30.0793 53.7798 30.4433 50.0737 34.0833Z" fill="#607D8B"/>
<path d="M66.354 30.6087C66.0562 30.8735 65.8246 31.3036 65.8246 31.5022C65.8246 31.7338 67.3137 33.3883 69.1336 35.2083C70.9536 37.0283 72.4427 38.6497 72.4427 38.8483C72.4427 39.0137 70.9205 40.7013 69.0675 42.5544C66.1886 45.4664 65.7253 46.062 66.0231 46.5584C66.8173 47.8158 67.5784 47.3856 71.7478 43.2162C74.9245 40.0064 75.7848 38.9475 75.6194 38.4512C75.3877 37.6901 67.7438 30.0793 67.2144 30.0793C67.0158 30.0793 66.6188 30.3109 66.354 30.6087Z" fill="#607D8B"/>
<path d="M8.51207 32.0978C7.81717 32.4949 7.75099 33.4214 8.31353 33.984C8.61134 34.2818 10.9608 34.381 16.884 34.381C23.8992 34.381 25.1566 34.3149 25.5868 33.8516C25.8846 33.5869 26.1162 33.2229 26.1162 33.0574C26.1162 32.892 25.8846 32.528 25.5868 32.2632C25.1566 31.8 23.9323 31.7338 17.0825 31.7338C12.2513 31.7338 8.84298 31.8993 8.51207 32.0978Z" fill="#607D8B"/>
<path d="M29.6236 32.2632C28.9949 32.8589 28.9949 32.9251 29.4251 33.7523C29.7229 34.2818 30.1531 34.381 31.9069 34.381C33.0651 34.381 34.2232 34.2818 34.521 34.1825C35.1498 33.9509 35.2159 32.6934 34.6534 32.1309C34.0578 31.5353 30.2524 31.6345 29.6236 32.2632Z" fill="#607D8B"/>
<path d="M8.01563 38.2196C7.91636 38.5174 7.94945 39.0137 8.148 39.3115C8.64435 40.1057 15.7919 40.1057 16.2883 39.2785C16.553 38.8814 16.5199 38.5836 16.2221 38.2196C15.5603 37.4254 8.31345 37.4585 8.01563 38.2196Z" fill="#607D8B"/>
<path d="M19.8621 38.1534C19.5642 38.5174 19.5311 38.8152 19.829 39.3446C20.193 40.0064 20.3915 40.0064 27.5391 39.9403L34.8852 39.841V38.8483V37.8556L27.5721 37.7563C21.4835 37.6901 20.193 37.7563 19.8621 38.1534Z" fill="#607D8B"/>
<path d="M8.01563 43.845C7.91636 44.1428 7.94945 44.6391 8.148 44.937C8.44581 45.4002 9.43853 45.4664 14.9316 45.5657C21.8475 45.665 22.4762 45.5326 21.9798 43.9773C21.7813 43.3486 21.5166 43.3155 14.9977 43.3155C9.04144 43.3155 8.21418 43.3817 8.01563 43.845Z" fill="#607D8B"/>
<path d="M25.5867 43.7787C25.4874 44.0435 25.4543 44.5398 25.5205 44.8707C25.6198 45.4002 26.05 45.4664 30.2525 45.4664H34.8851V44.4736V43.4809L30.3186 43.3817C26.5794 43.3155 25.7521 43.3817 25.5867 43.7787Z" fill="#607D8B"/>
<path d="M8.24715 49.4372C8.04861 49.702 7.91624 50.1652 7.98243 50.4961C8.0817 50.9925 8.44569 51.0918 10.1995 51.0918C11.8209 51.0918 12.3835 50.9594 12.6482 50.5292C12.9129 50.1321 12.8798 49.8343 12.582 49.4703C11.9864 48.7754 8.84278 48.7423 8.24715 49.4372Z" fill="#607D8B"/>
<path d="M16.1556 49.4703C15.8578 49.8343 15.8247 50.1321 16.0894 50.5292C16.3872 51.0256 17.413 51.0918 25.6526 51.0918H34.8848V50.099V49.1063L25.7518 49.0071C17.7108 48.9409 16.5527 49.0071 16.1556 49.4703Z" fill="#607D8B"/>
</svg>
