<svg width="64" height="64" viewBox="0 0 64 64" fill="none" xmlns="http://www.w3.org/2000/svg">
<path d="M30.45 0.724957C29.6751 1.42492 29.6251 1.54991 29.5501 3.47479L29.4501 5.49966H16.1509C3.42667 5.49966 2.85171 5.52466 2.07676 5.99963C1.02682 6.6246 0.676842 7.87452 0.776836 10.4744C0.87683 12.4492 0.926827 12.5742 1.70178 13.2742C2.15175 13.6742 2.77671 13.9991 3.12669 13.9991H3.75165V31.998C3.75165 51.7468 3.72666 51.3219 5.22656 52.0968C5.85153 52.4218 7.00145 52.4968 11.7512 52.4968C15.4509 52.4968 17.5008 52.5968 17.5008 52.7468C17.5008 52.8968 17.0008 54.8217 16.3759 57.0465C15.7509 59.2714 15.251 61.3713 15.251 61.6962C15.251 62.5462 15.6759 63.1961 16.5009 63.6211C18.4508 64.6211 19.6507 63.6711 20.5006 60.4213L21.0756 58.2464H31.9999H42.9243L43.4992 60.4213C44.3492 63.6711 45.5491 64.6211 47.499 63.6211C48.3239 63.1961 48.7489 62.5462 48.7489 61.6962C48.7489 61.3713 48.2489 59.2714 47.624 57.0465C46.999 54.8217 46.499 52.8968 46.499 52.7468C46.499 52.5968 48.5489 52.4968 52.2487 52.4968C56.9984 52.4968 58.1483 52.4218 58.7733 52.0968C60.1732 51.3969 60.2482 50.8219 60.2482 42.2474C60.2482 37.3477 60.1482 34.2729 59.9982 33.9729C59.6982 33.423 58.9483 33.348 58.5233 33.8229C58.3483 34.0479 58.2233 36.7978 58.1983 42.2724L58.1233 50.3719L45.7741 50.4969C34.3748 50.6219 33.3998 50.6469 33.1499 51.0469C32.9499 51.3719 32.9499 51.6218 33.1499 51.9218C33.3998 52.3218 33.9748 52.3968 37.3996 52.4968L41.3494 52.6218L41.6493 53.6217C41.7993 54.1717 42.0243 54.9966 42.0993 55.4466L42.2993 56.2466H31.9999H21.7006L21.9005 55.4466C21.9755 54.9966 22.2005 54.1717 22.3505 53.6217L22.6505 52.6218L26.3253 52.4968C29.2501 52.3968 30.075 52.2968 30.25 51.9968C30.575 51.4719 30.55 51.0719 30.2 50.8219C30.025 50.7219 24.4754 50.5719 17.8758 50.4969L5.87652 50.3719L5.80153 32.173L5.75153 13.9991H31.9999H58.2483V22.1986C58.2483 30.6981 58.2733 30.9981 59.2983 30.9981C60.1732 30.9981 60.2482 30.1982 60.2482 22.0237V13.9991H60.8732C61.2231 13.9991 61.8481 13.6742 62.2981 13.2742C63.073 12.5742 63.123 12.4492 63.223 10.4744C63.323 7.87452 62.973 6.6246 61.9231 5.99963C61.1481 5.52466 60.5732 5.49966 47.849 5.49966H34.5498L34.4498 3.47479C34.3748 1.54991 34.3248 1.42492 33.5498 0.724957C33.0499 0.274986 32.4749 0 31.9999 0C31.525 0 30.95 0.274986 30.45 0.724957ZM32.4999 3.74977C32.4999 5.32468 32.4499 5.49966 31.9999 5.49966C31.55 5.49966 31.5 5.32468 31.5 3.74977C31.5 2.17487 31.55 1.99988 31.9999 1.99988C32.4499 1.99988 32.4999 2.17487 32.4999 3.74977ZM61.1981 9.7994L61.2731 11.9993H31.9999H2.75171V9.9244C2.75171 8.77446 2.82671 7.74953 2.9267 7.67453C3.0017 7.57454 16.1509 7.52454 32.0999 7.54954L61.1231 7.62453L61.1981 9.7994ZM19.9507 55.2716C18.2508 61.5962 18.1508 61.8712 17.6258 61.8712C17.0008 61.8712 17.0008 61.9212 18.4258 56.6715C19.4757 52.8468 19.6257 52.4968 20.1507 52.4968H20.7006L19.9507 55.2716ZM45.5741 56.6715C46.999 61.9212 46.999 61.8712 46.374 61.8712C45.8491 61.8712 45.7491 61.5962 44.0492 55.2716L43.2992 52.4968H43.8492C44.3742 52.4968 44.5242 52.8468 45.5741 56.6715Z" fill="#607D8B"/>
<path d="M44.2993 17.3989C43.7993 17.7489 43.7493 17.9739 43.7493 20.2488V22.6986L41.5994 22.7736C38.7746 22.8986 38.4996 23.1986 38.4996 26.0234V27.9983H36.4248C33.6999 27.9983 33.4999 28.1983 33.4999 30.8231V32.748H31.5501C28.3753 32.748 28.5002 32.498 28.5002 38.8976V44.2473H27.5503C26.1254 44.2473 25.5754 45.0223 26.4004 45.8472C26.7504 46.1972 28.2753 46.2472 39.3996 46.2472C47.6241 46.2472 52.1988 46.1472 52.5238 45.9972C53.0487 45.6972 53.1487 44.9973 52.6988 44.5473C52.5238 44.3723 51.9738 44.2473 51.4488 44.2473H50.4989V31.0231V17.7739L49.9489 17.3989C49.549 17.099 48.774 16.999 47.1241 16.999C45.4742 16.999 44.6993 17.099 44.2993 17.3989ZM48.749 31.6231V44.2473H47.1241H45.4992V31.6231V18.9988H47.1241H48.749V31.6231ZM43.7493 34.4979V44.2473H42.1244H40.4995V34.4979V24.7485H42.1244H43.7493V34.4979ZM38.4996 36.9977V44.2473H36.9997H35.4998V36.9977V29.7482H36.9997H38.4996V36.9977ZM33.4999 39.4976V44.2473H31.875H30.2501V39.4976V34.7479H31.875H33.4999V39.4976Z" fill="#607D8B"/>
<path d="M14.9509 19.2738C14.701 19.3988 14.501 19.7238 14.501 19.9488C14.501 20.8487 15.0259 20.9987 17.8758 20.9987C19.7007 20.9987 20.7506 20.8987 20.9506 20.6987C21.4006 20.2488 21.3006 19.5488 20.7756 19.2488C20.1506 18.9238 15.5009 18.9238 14.9509 19.2738Z" fill="#607D8B"/>
<path d="M12.3012 24.0485C11.8512 24.4985 11.9512 25.1985 12.4762 25.4984C13.1262 25.8234 22.6256 25.8234 23.2755 25.4984C23.8005 25.1985 23.9005 24.4985 23.4505 24.0485C23.0255 23.6236 12.7262 23.6236 12.3012 24.0485Z" fill="#607D8B"/>
<path d="M12.1262 28.9982C11.7512 30.1482 12.2012 30.2482 17.8758 30.2482C23.5505 30.2482 24.0005 30.1482 23.6255 28.9982C23.4755 28.5233 23.3005 28.4983 17.8758 28.4983C12.4512 28.4983 12.2762 28.5233 12.1262 28.9982Z" fill="#607D8B"/>
<path d="M12.3012 33.298C11.8512 33.7479 11.9512 34.4479 12.4762 34.7479C13.1262 35.0729 22.6256 35.0729 23.2755 34.7479C23.8005 34.4479 23.9005 33.7479 23.4505 33.298C23.0255 32.873 12.7262 32.873 12.3012 33.298Z" fill="#607D8B"/>
</svg>
