<svg width="250" height="179" viewBox="0 0 250 179" fill="none" xmlns="http://www.w3.org/2000/svg">
<path d="M101.766 7.79721L80.1178 15.1342L87.7265 19.2103L95.3352 23.2863L95.4711 29.4911L95.6069 35.6958H96.6939H97.8261V30.0345C97.8261 26.9095 97.962 24.3733 98.0979 24.3733C98.2337 24.3733 100.091 25.415 102.174 26.6831L105.978 28.9476V32.7972V36.6016H126.495H147.056L147.011 31.5291L146.966 26.4113L157.609 20.5237C163.451 17.3081 168.614 14.4095 169.067 14.1378C169.746 13.7755 165.399 12.3715 147.328 7.16316C134.964 3.58526 124.502 0.641418 124.094 0.550838C123.732 0.460258 113.678 3.72113 101.766 7.79721Z" fill="white"/>
<path d="M96.6939 38.3226C95.8334 38.4585 95.7881 38.8208 95.7429 43.9838C95.6976 47.0182 95.3352 51.9095 94.8823 54.8534C94.0218 60.7411 94.203 61.511 96.4222 61.511C99.5472 61.4657 99.8189 59.9258 98.6867 48.4222C98.1885 43.3045 97.7356 38.8661 97.6903 38.6396C97.645 38.3679 97.1921 38.232 96.6939 38.3226Z" fill="white"/>
<path d="M105.797 38.3678C105.072 39.5001 104.167 44.3914 104.167 47.0182C104.167 61.5563 117.935 72.1994 132.02 68.5309C139.538 66.5381 145.924 60.1976 147.917 52.6794C148.777 49.5544 148.686 43.712 147.735 40.6776L146.92 38.1867L126.494 38.0508C115.036 38.0055 105.933 38.1414 105.797 38.3678Z" fill="white"/>
<path d="M96.739 72.8335C94.0216 73.6487 91.6213 77.1813 90.6249 81.8009C90.3532 83.1143 90.1267 87.2357 90.1267 90.9494V97.7429H126.359H162.59V90.9042C162.59 82.6614 161.821 78.6759 159.692 75.8679C156.929 72.1994 158.741 72.3806 126.585 72.4259C110.915 72.4259 97.4637 72.6523 96.739 72.8335Z" fill="white"/>
<path d="M15.3986 87.5528V89.5908H45.0634H74.7283V87.5528V85.5147H45.0634H15.3986V87.5528Z" fill="white"/>
<path d="M175.272 87.5528V89.5908H204.937H234.602V87.5528V85.5147H204.937H175.272V87.5528Z" fill="white"/>
<path d="M15.3986 95.2518V97.2898H45.0634H74.7283V95.2518V93.2137H45.0634H15.3986V95.2518Z" fill="white"/>
<path d="M175.272 95.2518V97.2898H204.937H234.602V95.2518V93.2137H204.937H175.272V95.2518Z" fill="white"/>
<path d="M77.6269 109.835C77.1287 112.145 76.4947 114.545 76.2229 115.225C75.6794 116.629 77.3099 115.768 78.0345 114.228C79.2121 111.828 80.8878 111.33 87.8171 111.33C91.5762 111.33 93.7954 111.511 94.0218 111.828C94.3389 112.417 91.6668 116.448 82.3371 129.31C78.6686 134.428 75.6342 138.776 75.6342 138.957C75.6342 139.455 98.8226 139.772 99.5019 139.274C100.136 138.821 101.449 134.609 101.449 133.069C101.449 131.756 100.815 132.027 99.5472 133.929C98.9584 134.79 98.0073 135.877 97.328 136.33C95.7881 137.462 91.7121 138.006 86.6396 137.734C83.0617 137.507 82.4276 137.372 82.4276 136.692C82.4276 135.832 89.2211 125.913 96.4222 116.176C99.3207 112.19 100.815 109.881 100.453 109.745C100.136 109.609 95.29 109.473 89.674 109.428C84.0581 109.337 79.1215 109.111 78.7139 108.929C78.0798 108.612 77.8986 108.794 77.6269 109.835Z" fill="white"/>
<path d="M115.761 109.473C115.58 109.79 115.942 110.152 116.712 110.424C120.199 111.647 120.244 111.692 120.38 115.949C120.516 120.342 118.931 135.288 118.161 136.737C117.889 137.236 116.984 137.96 116.078 138.322C115.217 138.73 114.583 139.138 114.719 139.228C114.991 139.545 125 139.545 125.317 139.274C125.407 139.138 124.728 138.685 123.777 138.232C121.286 137.009 120.833 135.786 121.15 131.484C121.603 124.917 122.373 117.897 122.69 117.534C123.052 117.172 126.494 125.188 129.755 133.975C130.933 137.1 131.929 139.681 132.02 139.772C132.11 139.908 134.782 134.79 137.998 128.495L143.795 116.991L144.067 121.973C144.248 124.69 144.384 129.129 144.429 131.801C144.474 136.149 144.384 136.783 143.569 137.598C143.071 138.096 142.255 138.504 141.757 138.504C140.942 138.504 140.398 139.409 141.214 139.409C141.984 139.455 152.038 139.455 152.853 139.455C154.031 139.409 153.215 138.73 151.132 138.051C150.226 137.779 149.275 137.19 149.049 136.737C148.46 135.65 147.554 121.973 147.735 116.629C147.871 111.737 147.962 111.647 151.449 110.424C153.849 109.563 152.128 109.02 148.098 109.382L144.293 109.745L143.75 111.783C143.161 114.138 134.33 132.616 133.741 132.752C133.378 132.842 127.763 119.21 125.679 113.005L124.456 109.518H122.599C121.558 109.518 119.656 109.382 118.388 109.246C116.893 109.065 115.942 109.111 115.761 109.473Z" fill="white"/>
<path d="M202.717 119.437C201.721 120.478 200.543 121.384 200.091 121.565C198.958 121.928 199.094 122.607 200.362 123.105C201.449 123.513 201.495 123.558 201.63 130.578L201.766 137.689L203.034 138.776C204.665 140.179 207.337 140.225 209.737 138.866C211.775 137.734 212.228 136.42 210.326 137.145C208.424 137.87 207.02 137.643 205.797 136.466C204.71 135.379 204.665 135.198 204.801 129.355L204.937 123.332L208.243 123.196C211.368 123.06 211.549 123.015 211.413 122.064C211.277 121.158 211.005 121.067 208.016 120.931L204.755 120.795L204.62 119.21L204.484 117.625L202.717 119.437Z" fill="white"/>
<path d="M178.216 120.931C176.993 121.611 175.77 122.29 175.498 122.38C175.272 122.516 175.408 122.879 175.861 123.241C177.084 124.283 177.537 126.502 177.537 131.801C177.537 136.103 177.446 136.783 176.631 137.598C176.133 138.096 175.408 138.504 175.046 138.504C174.683 138.504 174.366 138.685 174.366 138.957C174.366 139.228 176.178 139.409 178.895 139.409C183.469 139.409 184.556 139.002 182.065 138.096L180.707 137.643V131.348C180.707 123.694 180.979 123.105 184.738 122.743C187.455 122.516 188.95 123.105 189.719 124.781C189.991 125.37 190.218 128.359 190.218 131.529V137.19L188.542 138.187L186.821 139.183L189.176 139.319C190.489 139.409 192.709 139.409 194.158 139.319L196.785 139.183L195.426 138.504C194.701 138.141 193.931 137.643 193.75 137.371C193.569 137.145 193.388 134.292 193.388 131.121C193.388 124.69 192.935 122.969 190.852 121.339C189.765 120.478 189.176 120.342 187.364 120.569C186.142 120.705 184.239 121.339 183.107 121.973C181.975 122.607 180.979 123.105 180.888 123.105C180.843 123.105 180.707 122.335 180.616 121.384L180.48 119.708L178.216 120.931Z" fill="white"/>
<path d="M239.81 121.022C238.315 121.792 237.002 122.471 236.911 122.516C236.821 122.607 237.274 123.15 237.908 123.739C239.131 124.871 239.131 124.962 239.131 130.986C239.131 137.281 239.131 137.281 237.093 138.73C236.277 139.319 236.685 139.364 241.078 139.409C243.75 139.409 245.924 139.319 245.924 139.183C245.924 139.092 245.245 138.639 244.475 138.232C243.66 137.824 242.844 137.236 242.663 136.964C242.12 136.149 242.256 126.411 242.844 125.143C243.433 123.784 244.837 123.332 247.102 123.739C249.004 124.101 250 123.467 250 121.928C250 119.889 246.649 119.889 244.158 121.973L242.799 123.15L242.663 121.384L242.527 119.618L239.81 121.022Z" fill="white"/>
<path d="M42.2555 121.067C41.1686 121.656 40.0363 122.245 39.7646 122.335C39.357 122.516 39.5381 122.879 40.3081 123.513C41.395 124.373 41.4403 124.6 41.5762 130.759L41.7573 137.145L39.991 138.141L38.27 139.183L40.8968 139.319C42.3461 139.409 44.5653 139.409 45.8787 139.319L48.2338 139.138L46.5581 138.368L44.837 137.598V131.71C44.837 128.404 45.0635 125.37 45.3352 124.781C46.4222 122.426 51.2682 121.792 53.2157 123.784C54.3026 124.826 54.3479 125.098 54.3479 131.257V137.688L52.9892 138.187C52.2646 138.458 51.6305 138.866 51.6305 139.047C51.6305 139.228 53.6686 139.409 56.1595 139.409C58.6505 139.409 60.6885 139.319 60.6885 139.228C60.6885 139.138 59.9639 138.639 59.1034 138.096L57.5182 137.19V131.031C57.5182 123.966 57.02 122.245 54.7555 121.067C52.5816 119.935 50.7247 120.297 45.1088 123.014C44.8823 123.15 44.7918 122.471 44.9276 121.565C45.1541 119.663 44.8823 119.618 42.2555 121.067Z" fill="white"/>
<path d="M5.88768 120.886C0.588768 123.014 -0.588768 128.449 3.44203 132.344L5.07246 133.929L3.21558 135.152C1.99275 135.967 1.3587 136.692 1.3587 137.371C1.3587 138.458 2.85326 140.043 4.4837 140.677C5.57065 141.04 5.52536 141.13 3.07971 142.987C0.317029 145.071 0 145.524 0 147.743C0 150.551 2.98913 152.543 7.38225 152.589C11.0054 152.634 13.6775 151.547 15.8062 149.147C17.6178 147.063 18.5688 144.935 18.5688 142.897C18.5688 140.179 16.712 139.183 10.0091 138.322C4.39312 137.552 4.07609 137.462 4.07609 136.239C4.07609 134.88 5.66123 134.065 7.88043 134.292C12.0018 134.79 15.4438 131.438 16.1232 126.275C16.4402 123.649 16.8478 123.105 18.4783 123.105C19.067 123.105 19.4746 122.833 19.4746 122.426C19.4746 121.927 18.9764 121.746 17.7989 121.746C16.8478 121.746 14.8551 121.429 13.3605 121.067C10.2355 120.297 7.51812 120.252 5.88768 120.886ZM11.2319 122.788C14.9004 126.728 12.0471 134.427 7.6087 132.571C6.06884 131.937 4.52899 129.219 4.52899 127.181C4.52899 125.37 5.57065 122.879 6.65761 122.245C8.10688 121.429 10.1902 121.656 11.2319 122.788ZM14.4022 142.444C16.0326 143.667 16.2138 145.569 14.8551 147.516C13.2699 149.826 11.6395 150.868 9.42029 150.913C3.98551 151.004 1.31341 146.52 4.61957 142.761L6.06884 141.13L9.60145 141.312C12.2283 141.493 13.4964 141.764 14.4022 142.444Z" fill="white"/>
<path d="M26.449 121.248C22.3729 123.105 20.1537 127.996 21.2406 132.752C21.8747 135.65 23.5504 138.232 25.362 139.183C26.9019 139.953 30.1628 140.089 32.0196 139.364C33.7407 138.73 35.7787 136.737 35.7787 135.65C35.7787 134.88 35.6428 134.926 34.3747 135.967C31.8838 138.051 27.4454 137.371 25.4526 134.563C24.3204 132.978 23.4146 129.672 23.7769 128.54C24.0486 127.725 24.5015 127.634 28.8946 127.634C34.9182 127.634 35.9146 127.136 35.6881 124.328C35.5975 122.788 35.2805 122.29 34.0124 121.429C32.1102 120.116 29.0758 120.071 26.449 121.248ZM31.3856 122.245C32.6537 122.924 33.0613 123.513 33.0613 124.781C33.0613 125.551 32.7443 125.823 31.612 126.049C29.257 126.502 24.7733 126.14 24.5468 125.46C24.4562 125.143 25.0903 124.192 25.9508 123.332C27.6718 121.611 29.4834 121.294 31.3856 122.245Z" fill="white"/>
<path d="M162.817 120.976C159.058 122.471 156.703 125.958 156.703 130.125C156.703 135.877 159.918 139.862 164.493 139.862C167.618 139.817 171.649 137.507 171.649 135.696C171.649 135.016 170.426 135.333 169.61 136.239C168.976 136.918 168.207 137.145 166.395 137.145C164.357 137.145 163.723 136.918 162.409 135.786C160.643 134.201 159.284 131.121 159.511 129.174L159.647 127.86L164.9 127.634C170.562 127.408 171.649 126.955 171.649 125.053C171.649 121.293 167.21 119.255 162.817 120.976ZM167.799 122.879C170.109 125.143 168.841 126.275 163.949 126.275C159.918 126.275 159.375 125.505 161.821 123.241C163.904 121.339 166.168 121.203 167.799 122.879Z" fill="white"/>
<path d="M219.928 121.294C217.346 122.607 216.078 123.92 214.855 126.502C212.545 131.438 214.176 136.602 218.841 139.002C221.015 140.134 225.136 140.134 227.582 139.002C233.424 136.375 235.1 128.087 230.797 123.558C227.853 120.433 223.46 119.527 219.928 121.294ZM225.815 122.607C228.08 123.966 229.393 127.227 229.348 131.257C229.348 134.881 228.533 137.19 226.948 138.051C225.408 138.866 222.147 138.594 220.833 137.553C216.984 134.518 216.305 126.366 219.656 123.015C221.196 121.475 223.687 121.294 225.815 122.607Z" fill="white"/>
<path d="M67.7988 128.313C65.6249 128.631 63.7227 128.948 63.6321 129.038C63.5868 129.129 63.4057 129.717 63.3151 130.352C63.1792 131.393 63.3151 131.484 64.7644 131.348C67.3006 131.121 72.1466 130.352 72.5542 130.08C73.143 129.717 72.9618 127.634 72.3731 127.679C72.056 127.725 69.9727 127.996 67.7988 128.313Z" fill="white"/>
<path d="M55.2536 166.085V168.757L53.9855 168.304C49.7283 166.674 46.6033 171.973 49.8188 175.188C50.8605 176.23 53.3967 176.411 54.3025 175.505C54.8007 175.053 54.9366 175.053 55.1178 175.505C55.2536 175.822 55.7065 176.094 56.2047 176.094C57.0199 176.094 57.0652 175.687 57.0652 169.754C57.0652 163.73 57.0199 163.413 56.1594 163.413C55.3442 163.413 55.2536 163.73 55.2536 166.085ZM54.7101 170.342C55.9783 171.339 54.7101 174.283 52.9438 174.283C50.8605 174.283 49.9547 171.248 51.6757 170.025C52.6268 169.391 53.5779 169.482 54.7101 170.342Z" fill="white"/>
<path d="M143.116 166.085V168.757L141.757 168.259C138.949 167.172 135.96 169.663 136.504 172.652C136.685 173.558 137.274 174.69 137.772 175.188C138.859 176.185 141.259 176.411 142.165 175.505C142.663 175.053 142.799 175.053 142.98 175.505C143.116 175.822 143.569 176.094 144.067 176.094C144.882 176.094 144.928 175.687 144.928 169.754C144.928 163.73 144.882 163.413 144.022 163.413C143.207 163.413 143.116 163.73 143.116 166.085ZM142.573 170.342C143.931 171.384 142.663 174.283 140.852 174.283C138.723 174.283 137.817 171.248 139.538 170.025C140.489 169.391 141.44 169.482 142.573 170.342Z" fill="white"/>
<path d="M185.688 169.708V176.094H186.82C187.862 176.094 187.953 175.958 187.953 173.784C187.953 170.931 188.541 169.754 189.991 169.754C191.078 169.754 191.123 169.89 191.123 172.199C191.123 175.234 191.44 176.094 192.527 176.094C193.297 176.094 193.388 175.732 193.388 173.015C193.388 169.346 192.618 167.942 190.67 167.942C189.945 167.942 189.221 168.123 189.085 168.395C188.451 169.437 187.998 168.667 187.862 166.221C187.726 163.957 187.59 163.64 186.73 163.504C185.688 163.368 185.688 163.368 185.688 169.708Z" fill="white"/>
<path d="M220.199 169.618C220.335 175.732 220.381 175.868 221.377 176.004C222.373 176.14 222.373 176.14 222.373 169.799V163.413H221.241H220.063L220.199 169.618Z" fill="white"/>
<path d="M0.226419 164.772C0.407578 165.27 1.40395 168.123 2.49091 171.022L4.48366 176.321L5.93294 173.015C6.74816 171.248 7.56337 169.754 7.69924 169.754C7.8804 169.754 8.46917 171.067 9.01265 172.698C9.60142 174.328 10.1902 175.732 10.3713 175.823C10.5072 175.913 11.5942 173.286 12.7717 169.89L14.9003 163.821L13.6775 163.957C12.5905 164.093 12.3641 164.455 11.5036 167.489L10.5072 170.886L9.82787 169.301C9.46555 168.44 8.87678 166.855 8.55975 165.768C8.10685 164.183 7.83511 163.866 6.88403 163.866C5.93294 163.866 5.84236 164.002 6.1141 164.862C6.567 166.402 6.47642 167.082 5.52533 169.301L4.66482 171.294L3.57787 167.716C2.58149 164.41 2.35504 164.093 1.17751 163.957C0.0905493 163.821 -0.0453202 163.911 0.226419 164.772Z" fill="white"/>
<path d="M79.7101 166.357C79.7101 167.217 79.529 167.942 79.2572 167.942C79.0308 167.942 78.8043 168.35 78.8043 168.848C78.8043 169.346 78.9855 169.754 79.2572 169.754C79.4837 169.754 79.7101 171.112 79.8007 172.788C79.9366 175.596 80.0271 175.868 80.9782 176.004C81.9293 176.14 81.9746 176.004 81.9746 172.969C81.9746 170.071 82.0652 169.754 82.8804 169.754C83.4692 169.754 83.7862 169.437 83.7862 168.848C83.7862 168.259 83.4692 167.942 82.8804 167.942C82.1558 167.942 81.9746 167.625 81.9746 166.357C81.9746 164.953 81.8387 164.772 80.8424 164.772C79.846 164.772 79.7101 164.953 79.7101 166.357Z" fill="white"/>
<path d="M105.525 166.312C105.525 167.263 105.253 167.942 104.846 168.123C104.484 168.259 104.167 168.667 104.167 169.074C104.167 169.437 104.484 169.754 104.846 169.754C105.389 169.754 105.525 170.388 105.525 172.924C105.525 175.777 105.616 176.094 106.431 176.094C107.201 176.094 107.292 175.732 107.427 173.015C107.563 170.252 107.654 169.98 108.605 169.844C109.964 169.663 109.737 168.214 108.333 168.033C107.518 167.897 107.337 167.58 107.337 166.312C107.337 165.089 107.156 164.772 106.431 164.772C105.706 164.772 105.525 165.089 105.525 166.312Z" fill="white"/>
<path d="M121.377 166.357C121.377 167.217 121.196 167.942 120.924 167.942C120.697 167.942 120.471 168.35 120.471 168.848C120.471 169.346 120.652 169.754 120.924 169.754C121.15 169.754 121.377 171.112 121.467 172.788C121.603 175.596 121.694 175.868 122.645 176.004C123.596 176.14 123.641 176.004 123.641 172.969C123.641 170.071 123.732 169.754 124.547 169.754C125.136 169.754 125.453 169.437 125.453 168.848C125.453 168.259 125.136 167.942 124.547 167.942C123.822 167.942 123.641 167.625 123.641 166.357C123.641 164.953 123.505 164.772 122.509 164.772C121.513 164.772 121.377 164.953 121.377 166.357Z" fill="white"/>
<path d="M165.761 166.357C165.761 167.217 165.58 167.942 165.308 167.942C165.081 167.942 164.855 168.35 164.855 168.848C164.855 169.346 165.081 169.754 165.308 169.754C165.58 169.754 165.761 171.112 165.761 172.924C165.761 176.004 165.806 176.094 166.893 176.094C167.98 176.094 168.025 176.004 168.025 172.924C168.025 170.071 168.116 169.754 168.931 169.754C169.475 169.754 169.837 169.437 169.837 169.029C169.837 168.621 169.429 168.214 168.931 168.078C168.252 167.897 168.025 167.444 168.025 166.312C168.025 164.953 167.889 164.772 166.893 164.772C165.897 164.772 165.761 164.953 165.761 166.357Z" fill="white"/>
<path d="M17.1648 169.255C16.259 170.161 15.8514 171.022 15.8514 172.018C15.8514 174.101 17.9801 176.094 20.154 176.094C22.192 176.094 23.596 175.37 23.279 174.509C23.0978 174.056 22.7355 173.966 21.9203 174.283C20.788 174.736 18.5688 174.192 18.5688 173.467C18.5688 173.241 19.6105 172.652 20.9239 172.154C22.2373 171.656 23.3696 171.022 23.4601 170.75C23.5507 170.478 23.0978 169.708 22.4638 169.074C20.8786 167.489 18.8859 167.58 17.1648 169.255ZM21.1504 170.478C21.2409 170.75 20.6069 171.158 19.7011 171.429C18.4783 171.837 18.1159 171.792 18.1159 171.384C18.1159 169.98 20.7427 169.21 21.1504 170.478Z" fill="white"/>
<path d="M29.7555 168.214C29.5743 168.395 29.4385 169.89 29.4385 171.565C29.4385 173.92 29.6196 174.781 30.2537 175.324C31.2954 176.275 33.4693 176.321 34.7374 175.415C35.5979 174.826 35.7338 174.826 35.9602 175.415C36.0961 175.777 36.5037 176.094 36.9113 176.094C37.4548 176.094 37.5907 175.37 37.5907 172.018C37.5907 168.35 37.5001 167.942 36.7301 167.942C36.0508 167.942 35.8696 168.395 35.6432 170.478C35.3262 173.422 34.7827 174.283 33.0164 174.283C31.7483 174.283 31.7483 174.237 31.6124 171.248C31.5218 168.893 31.2954 168.169 30.7972 168.033C30.3896 167.987 29.9367 168.033 29.7555 168.214Z" fill="white"/>
<path d="M39.7191 168.259C39.538 168.395 39.4021 170.252 39.4021 172.335C39.4021 176.049 39.4474 176.14 40.4438 176.004C41.3043 175.868 41.4854 175.551 41.6666 173.377C41.9383 170.342 42.3007 169.754 43.7499 169.754C44.7463 169.754 44.8369 169.935 44.8369 171.882C44.8369 174.917 45.2445 176.094 46.2409 176.094C47.0108 176.094 47.1014 175.732 47.1014 172.788C47.1014 168.304 45.8785 167.082 42.7535 168.486C41.7572 168.938 41.4854 168.938 41.3043 168.486C41.1231 167.897 40.2173 167.761 39.7191 168.259Z" fill="white"/>
<path d="M59.9183 169.029C58.9219 169.89 58.6501 170.478 58.6501 172.018C58.6501 173.558 58.9219 174.147 59.9183 175.007C61.3675 176.23 64.0849 176.457 65.4436 175.506C66.6212 174.6 65.9418 173.739 64.5378 174.283C63.3603 174.736 61.1411 174.192 61.1411 173.468C61.1411 173.241 62.1828 172.652 63.4962 172.154C64.8096 171.656 65.9418 171.022 66.0324 170.75C66.123 170.478 65.6701 169.708 65.036 169.074C63.5867 167.625 61.594 167.58 59.9183 169.029ZM63.8585 170.343C63.8585 170.705 63.1338 171.158 62.2733 171.429C60.5976 171.973 60.0994 171.429 61.2317 170.297C61.9563 169.573 63.8585 169.618 63.8585 170.343Z" fill="white"/>
<path d="M67.799 168.259C67.6178 168.395 67.4819 170.252 67.4819 172.335C67.4819 176.049 67.4819 176.094 68.6142 176.094C69.6558 176.094 69.7464 175.913 69.7464 174.011C69.7464 171.701 70.3805 170.207 71.3316 170.207C71.6939 170.207 72.1921 169.799 72.4638 169.301C73.1432 168.078 71.8298 167.534 70.6975 168.576C69.7011 169.482 69.2935 169.482 69.2935 168.621C69.2935 167.942 68.3424 167.67 67.799 168.259Z" fill="white"/>
<path d="M74.0943 168.621C73.0074 169.708 73.1885 170.795 74.7284 172.245C76.223 173.649 76.1324 174.283 74.4567 174.283C72.7809 174.283 73.1885 175.823 74.8643 176.004C76.5853 176.23 77.4458 175.37 77.4458 173.603C77.4458 172.516 77.1288 171.928 76.2682 171.384C75.0001 170.524 75.0454 169.527 76.3588 169.527C76.8117 169.527 77.2193 169.21 77.2193 168.848C77.2193 167.897 75.0001 167.716 74.0943 168.621Z" fill="white"/>
<path d="M86.2316 168.984C85.2805 169.799 85.0088 170.433 85.0088 171.837C85.0088 175.279 86.9563 176.819 89.8548 175.687C90.7606 175.37 91.3041 175.324 91.3947 175.641C91.4852 175.868 91.9381 176.094 92.4363 176.094C93.2063 176.094 93.2968 175.732 93.2968 172.018C93.2968 167.897 92.9345 167.127 91.5758 168.486C91.1682 168.893 90.8965 168.893 90.4889 168.486C89.6284 167.625 87.545 167.851 86.2316 168.984ZM91.1229 170.886C92.2552 173.377 89.5831 175.46 87.6809 173.558C86.8204 172.743 86.7298 171.067 87.4997 170.297C88.4961 169.301 90.5342 169.663 91.1229 170.886Z" fill="white"/>
<path d="M95.4257 168.259C95.2445 168.395 95.1086 170.252 95.1086 172.335C95.1086 176.049 95.1086 176.094 96.2409 176.094C97.2826 176.094 97.3731 175.958 97.3731 173.784C97.3731 170.976 97.9619 169.754 99.3659 169.754C100.362 169.754 100.453 169.98 100.77 172.924C101.042 175.641 101.223 176.094 101.947 176.094C102.717 176.094 102.808 175.732 102.808 172.788C102.808 168.304 101.585 167.082 98.4601 168.486C97.4637 168.938 97.192 168.938 97.0108 168.486C96.8297 167.897 95.9239 167.761 95.4257 168.259Z" fill="white"/>
<path d="M115.761 168.621C114.719 169.663 114.855 170.795 116.168 172.018C117.618 173.377 117.618 174.283 116.123 174.283C114.493 174.283 114.81 175.823 116.531 176.004C118.252 176.23 119.112 175.37 119.112 173.603C119.112 172.516 118.795 171.928 117.935 171.384C116.667 170.524 116.712 169.527 118.025 169.527C118.478 169.527 118.886 169.21 118.886 168.848C118.886 167.897 116.667 167.716 115.761 168.621Z" fill="white"/>
<path d="M127.129 168.214C126.948 168.395 126.812 169.89 126.812 171.565C126.812 173.92 126.993 174.781 127.627 175.324C128.669 176.275 130.843 176.321 132.111 175.415C132.971 174.826 133.107 174.826 133.334 175.415C133.469 175.777 133.877 176.094 134.285 176.094C134.828 176.094 134.964 175.37 134.964 172.018C134.964 168.259 134.919 167.942 134.058 167.942C133.334 167.942 133.152 168.259 133.152 169.527C133.152 170.433 132.835 171.837 132.518 172.697C131.975 174.011 131.612 174.283 130.48 174.283H129.122L128.986 171.248C128.895 168.893 128.669 168.169 128.17 168.033C127.763 167.987 127.31 168.033 127.129 168.214Z" fill="white"/>
<path d="M147.826 168.984C146.875 169.844 146.603 170.433 146.603 172.018C146.603 173.603 146.875 174.192 147.826 175.053C149.23 176.23 151.947 176.457 153.306 175.505C154.438 174.645 153.804 173.739 152.491 174.328C151.404 174.826 149.003 174.192 149.003 173.467C149.003 173.241 150.045 172.652 151.358 172.199C152.627 171.701 153.759 171.112 153.849 170.841C153.94 170.569 153.578 169.799 153.079 169.165C151.811 167.58 149.547 167.489 147.826 168.984ZM151.721 170.388C151.721 170.705 151.358 171.112 150.951 171.248C150.498 171.339 149.773 171.61 149.366 171.792C148.415 172.154 148.233 171.158 149.094 170.297C149.864 169.527 151.721 169.618 151.721 170.388Z" fill="white"/>
<path d="M155.661 168.259C155.48 168.395 155.344 170.252 155.344 172.335C155.344 176.049 155.344 176.094 156.476 176.094C157.563 176.094 157.609 175.958 157.609 173.694C157.609 171.158 158.469 169.754 159.964 169.754C160.915 169.754 161.232 170.705 161.232 173.649C161.232 175.777 161.322 176.094 162.138 176.094C162.953 176.094 163.044 175.777 163.044 172.788C163.044 170.116 162.862 169.301 162.228 168.712C161.187 167.761 159.919 167.716 158.65 168.621C157.79 169.21 157.654 169.21 157.428 168.621C157.156 167.942 156.159 167.716 155.661 168.259Z" fill="white"/>
<path d="M175.725 173.377C175.725 178.494 175.77 178.812 176.631 178.812C177.401 178.812 177.536 178.494 177.536 177C177.536 175.324 177.627 175.188 178.397 175.641C179.982 176.456 182.02 176.185 183.288 174.917C184.285 173.92 184.421 173.467 184.194 171.656C183.832 168.485 181.431 167.036 178.805 168.44C178.171 168.802 177.763 168.802 177.401 168.44C177.129 168.168 176.631 167.942 176.314 167.942C175.861 167.942 175.725 169.21 175.725 173.377ZM181.522 170.297C181.839 170.614 182.065 171.384 182.065 172.018C182.065 173.558 181.296 174.283 179.71 174.283C178.035 174.283 177.129 172.562 177.899 170.886C178.488 169.663 180.526 169.301 181.522 170.297Z" fill="white"/>
<path d="M194.746 168.35C194.746 168.531 195.38 170.206 196.196 171.973C197.554 175.098 197.6 175.234 196.875 177C196.196 178.766 196.196 178.812 197.192 178.812C198.052 178.812 198.505 178.042 200.362 173.558C201.585 170.705 202.446 168.214 202.31 168.078C201.676 167.489 200.634 168.485 199.728 170.523L198.732 172.697L197.69 170.297C196.875 168.576 196.377 167.942 195.697 167.942C195.154 167.942 194.746 168.123 194.746 168.35Z" fill="white"/>
<path d="M205.344 168.486C202.898 169.663 202.763 173.694 205.118 175.506C205.888 176.094 207.835 176.275 208.967 175.823C210.145 175.37 209.239 174.283 207.654 174.283C206.114 174.283 205.616 173.694 205.616 171.837C205.616 170.478 206.431 169.754 207.926 169.754C208.605 169.754 209.33 169.527 209.511 169.256C210.19 168.123 207.246 167.535 205.344 168.486Z" fill="white"/>
<path d="M211.911 169.255C211.006 170.161 210.598 171.022 210.598 172.018C210.598 174.056 212.727 176.094 214.9 176.094C216.984 176.094 218.75 174.464 218.75 172.471C218.75 168.304 214.765 166.447 211.911 169.255ZM216.395 170.841C217.301 172.879 215.127 175.143 213.542 173.83C212.727 173.15 212.636 171.067 213.406 170.297C214.312 169.391 215.852 169.663 216.395 170.841Z" fill="white"/>
<path d="M225.227 169.029C224.23 169.89 223.958 170.478 223.958 172.018C223.958 173.558 224.23 174.147 225.227 175.007C228.035 177.408 231.884 175.687 231.884 172.018C231.884 168.35 228.035 166.629 225.227 169.029ZM229.62 170.886C230.208 172.426 229.348 174.283 228.035 174.283C226.766 174.283 225.997 173.468 225.997 172.018C225.997 169.663 228.805 168.757 229.62 170.886Z" fill="white"/>
<path d="M234.33 169.12C232.79 170.614 232.835 173.468 234.375 174.962C235.553 176.185 236.821 176.366 238.27 175.596C239.13 175.143 239.176 175.189 238.678 176.094C238.225 176.91 237.817 177.045 236.096 176.91C233.741 176.774 233.107 177.453 234.783 178.359C236.458 179.219 238.632 179.038 239.855 177.861C240.852 176.91 240.942 176.502 240.942 172.471V168.078H238.179C235.824 168.033 235.19 168.214 234.33 169.12ZM238.768 170.886C239.402 172.29 238.632 174.283 237.5 174.283C236.504 174.283 235.054 173.015 235.054 172.154C235.054 169.754 237.817 168.848 238.768 170.886Z" fill="white"/>
<path d="M242.573 168.304C242.482 168.485 242.98 170.025 243.705 171.746C245.199 175.279 245.245 175.687 244.339 177.453C243.66 178.766 243.66 178.812 244.701 178.812C245.698 178.812 246.06 178.223 247.917 173.784C250.227 168.168 250.272 167.942 249.276 167.942C248.868 167.942 248.189 168.893 247.6 170.206C247.056 171.429 246.513 172.471 246.377 172.471C246.196 172.471 245.834 171.701 245.516 170.75C245.154 169.844 244.701 168.802 244.475 168.485C243.931 167.897 242.935 167.761 242.573 168.304Z" fill="white"/>
</svg>
