<svg width="66" height="64" viewBox="0 0 66 64" fill="none" xmlns="http://www.w3.org/2000/svg">
<path d="M1.26875 0.256031C0.89349 0.63129 0.89349 1.28174 1.26875 1.657C1.4939 1.88215 4.14573 1.95721 11.6509 1.95721H21.7329V3.03295V4.10869L20.4069 4.38388C16.104 5.2845 12.5265 8.96204 11.751 13.315C11.5759 14.2657 11.4758 19.9696 11.4758 29.176V43.5609L10.5251 42.4852C9.67455 41.5095 9.52444 41.4344 9.0241 41.7096C8.17351 42.1599 8.34863 42.9105 9.84967 44.8368C11.6259 47.1634 12.1763 47.7388 12.6016 47.7388C13.0269 47.7388 16.2291 43.7861 16.6043 42.8104C16.8045 42.31 16.7544 42.1099 16.3542 41.8347C15.6787 41.3344 15.5536 41.3594 14.4779 42.5352L13.4772 43.6109V32.7785C13.4772 26.8494 13.5022 21.971 13.5522 21.971C13.5772 21.971 14.2527 22.5714 15.0533 23.3219C17.9803 26.0989 21.7579 27.0995 25.6105 26.0738C27.5619 25.5735 29.0629 24.6979 30.689 23.1468L31.9899 21.8709V29.6513C31.9899 34.4796 32.09 37.957 32.2651 38.7826C33.1407 42.8854 36.368 46.2377 40.4708 47.2635L42.1219 47.6887L42.197 48.7145L42.272 49.7402H39.7953C38.0942 49.7402 37.2185 49.8402 37.0434 50.0404C36.8933 50.2155 36.468 53.2426 36.0928 56.77C35.4924 62.1487 35.4423 63.2745 35.7175 63.5997C36.0177 63.95 36.9684 64 43.2477 64C49.3519 64 50.4777 63.95 50.7529 63.6247C51.1782 63.1244 49.8523 50.6158 49.3019 50.0904C49.0767 49.8402 48.2762 49.7402 46.6 49.7402H44.2484V48.6394V47.5637L45.3992 47.3885C48.1761 47.0133 51.5784 44.5366 53.0795 41.7597C54.4554 39.2329 54.5055 38.6825 54.5055 19.5443V1.95721L59.5339 1.90717C64.037 1.83212 64.6124 1.78209 64.8626 1.38181C65.0628 1.0816 65.0628 0.831429 64.8626 0.506203C64.5874 0.105927 62.7612 0.0809097 33.0657 0.00585938C8.77393 -0.0191574 1.4939 0.0308762 1.26875 0.256031ZM52.5041 15.8418C52.5041 23.472 52.4791 29.7264 52.429 29.7264C52.379 29.7264 51.7786 29.176 51.0531 28.4755C46.6 24.1725 39.8704 24.1725 35.4423 28.4755L33.9913 29.8765V21.971C33.9913 13.4151 33.8913 12.4645 32.5904 9.91269C31.2394 7.26086 27.712 4.68409 24.885 4.30883L23.7342 4.13371V3.05796V1.95721H38.1192H52.5041V15.8418ZM21.7329 7.21083C21.7329 8.08643 21.6578 8.21152 21.0574 8.36162C19.081 8.81193 16.8545 10.8133 16.104 12.7897C15.4285 14.5659 15.6787 17.3428 16.6293 18.8939C18.0803 21.2455 20.9823 22.6965 23.5591 22.3713C25.8357 22.0461 28.0372 20.57 29.0129 18.6687C29.6133 17.4929 29.6133 16.7924 29.0129 16.4672C28.3374 16.117 27.8371 16.3671 27.4868 17.2177C27.0866 18.1934 25.7857 19.4693 24.76 19.8946C23.7593 20.3199 21.908 20.3699 20.9323 19.9946C18.9309 19.2441 17.555 16.9175 17.8052 14.741C18.1304 12.0141 20.6321 9.98774 23.309 10.288C24.9351 10.4881 26.3611 11.4387 27.2367 12.9648C27.9371 14.1406 28.5125 14.4658 29.113 13.9655C30.4639 12.8397 27.6369 9.31228 24.6849 8.41166C23.8093 8.16148 23.7342 8.06142 23.7342 7.16079C23.7342 6.01 24.0345 5.95996 26.1109 6.7355C27.9872 7.43599 30.0136 9.3373 30.9892 11.2886C33.9913 17.3678 29.4632 24.4727 22.6085 24.4727C21.1575 24.4727 18.6808 23.6722 17.53 22.8466C11.3507 18.2935 12.7016 9.13716 19.9316 6.56038C21.5077 6.01 21.7329 6.08505 21.7329 7.21083ZM47.0003 28.1253C48.9767 29.0009 51.0031 31.1523 51.7786 33.1537C52.5291 35.1301 52.5291 37.832 51.7786 39.7833C50.7529 42.4351 47.7508 44.9869 45.174 45.4122L44.2484 45.5623V44.5116C44.2484 43.8611 44.3735 43.4858 44.5736 43.4858C44.7237 43.4858 45.4492 43.2107 46.1247 42.8854C49.1268 41.4845 51.1031 37.832 49.0517 37.5317C48.6514 37.4817 48.3262 37.7819 47.6758 38.8076C46.625 40.4337 45.4742 41.2093 43.7981 41.4094C41.6216 41.6596 39.7203 40.6339 38.7196 38.6575C37.9691 37.2065 38.1192 34.8799 39.0698 33.6541C40.1956 32.1781 41.1713 31.6277 42.8724 31.5276C45.149 31.3775 46.8002 32.3282 47.8509 34.4296C48.3512 35.4053 48.7765 35.6304 49.502 35.2302C49.9523 34.98 50.0274 34.7798 49.9023 34.1794C49.6771 33.0286 48.4763 31.4275 47.1754 30.5519C42.4221 27.3747 36.0678 30.7771 36.1678 36.481C36.1678 37.3816 36.3179 38.4324 36.493 38.8577C37.2686 40.9091 39.1199 42.6353 41.1963 43.2607C42.197 43.5609 42.247 43.6109 42.247 44.5366C42.247 45.3121 42.1469 45.4872 41.7467 45.4872C40.5959 45.4872 38.4194 44.3865 37.0184 43.0856C31.8398 38.3073 33.7161 29.9265 40.4708 27.6749C42.4221 27.0245 44.9489 27.1996 47.0003 28.1253ZM47.7508 51.9167C47.7508 52.0418 47.976 54.0181 48.2512 56.3697C48.5263 58.6963 48.7515 60.9229 48.7515 61.2981V61.9986H43.0976H37.4437L37.5938 61.2981C37.6689 60.9229 37.894 58.8715 38.1192 56.745C38.3443 54.6185 38.5695 52.6171 38.6445 52.2919C38.7446 51.7415 38.7946 51.7415 43.2477 51.7415C45.7244 51.7415 47.7508 51.8166 47.7508 51.9167Z" fill="#607D8B"/>
</svg>
